<?xml version="1.0" encoding="UTF-8" standalone="no"?>
<!DOCTYPE svg PUBLIC "-//W3C//DTD SVG 1.1//EN" "http://www.w3.org/Graphics/SVG/1.1/DTD/svg11.dtd">
<svg xmlns="http://www.w3.org/2000/svg" version="1.1" viewBox="0.00 0.00 2560.00 538.00">
<path fill="#ffa52e" d="
  M 1170.18 114.33
  L 1091.02 132.57
  Q 1089.64 132.89 1090.67 131.92
  L 1203.40 26.62
  A 0.28 0.28 0.0 0 1 1203.87 26.77
  L 1239.77 243.00
  Q 1240.20 245.64 1238.95 243.28
  L 1170.93 114.68
  Q 1170.69 114.21 1170.18 114.33
  Z"
/>
<path fill="#000000" d="
  M 2136.49 200.48
  Q 2136.41 189.31 2137.05 181.01
  C 2140.70 133.99 2172.09 100.98 2218.26 93.41
  C 2254.21 87.51 2287.47 94.56 2313.44 120.90
  Q 2313.79 121.26 2313.44 121.61
  L 2261.87 173.43
  Q 2261.55 173.76 2261.19 173.46
  Q 2250.12 164.39 2236.56 168.13
  C 2222.74 171.96 2220.70 188.34 2222.26 200.31
  Q 2222.32 200.75 2222.77 200.75
  L 2285.75 200.75
  Q 2286.25 200.75 2286.25 201.25
  L 2286.25 269.75
  Q 2286.25 270.25 2285.75 270.25
  L 2222.46 270.25
  Q 2221.92 270.25 2221.92 270.79
  L 2222.25 414.00
  A 0.50 0.50 0.0 0 1 2221.75 414.50
  L 2137.25 414.50
  Q 2136.75 414.50 2136.75 414.00
  L 2136.75 271.00
  Q 2136.75 270.50 2136.25 270.50
  L 2110.76 270.50
  Q 2110.27 270.50 2110.27 270.01
  L 2110.22 201.52
  Q 2110.22 201.00 2110.73 201.00
  L 2135.97 201.00
  Q 2136.49 201.00 2136.49 200.48
  Z"
/>
<path fill="#ffa52e" d="
  M 115.60 327.30
  C 145.68 350.68 181.21 361.14 219.01 359.58
  C 238.99 358.75 271.05 352.32 273.35 326.89
  C 275.68 301.01 242.28 293.28 223.23 290.77
  C 170.74 283.85 96.12 276.25 86.22 208.26
  C 76.56 141.99 129.48 103.77 189.00 97.10
  C 238.58 91.54 292.29 102.13 333.30 131.27
  Q 333.69 131.55 333.42 131.95
  L 299.32 183.10
  Q 298.98 183.60 298.49 183.27
  Q 249.28 149.72 191.25 160.42
  Q 182.64 162.01 174.16 166.78
  C 163.77 172.62 156.95 180.17 157.37 192.24
  C 157.84 205.67 167.61 213.36 179.35 217.57
  C 197.28 223.99 212.03 225.30 235.50 228.28
  Q 247.06 229.75 264.23 234.46
  C 307.90 246.47 343.34 270.07 345.91 319.69
  C 349.15 382.41 296.98 417.02 240.11 423.52
  C 183.23 430.01 122.44 416.93 77.05 381.10
  A 0.49 0.48 37.0 0 1 76.95 380.44
  L 114.72 327.43
  Q 115.09 326.91 115.60 327.30
  Z"
/>
<path fill="#000000" d="
  M 2419.53 200.50
  L 2463.82 200.49
  Q 2464.40 200.49 2464.40 201.07
  L 2464.54 269.48
  Q 2464.55 270.00 2464.02 270.00
  L 2419.54 270.00
  Q 2419.11 270.00 2419.11 270.43
  Q 2418.70 306.91 2419.20 326.73
  Q 2419.35 332.51 2421.99 339.51
  C 2424.53 346.26 2430.35 349.65 2437.59 350.24
  Q 2452.25 351.44 2464.02 342.01
  Q 2464.43 341.69 2464.43 342.21
  L 2464.66 408.34
  Q 2464.66 408.79 2464.25 408.96
  Q 2454.27 413.22 2447.52 414.81
  Q 2425.04 420.12 2400.48 419.51
  Q 2388.84 419.22 2380.73 416.91
  C 2356.16 409.92 2338.54 389.06 2334.70 363.87
  Q 2333.81 358.03 2333.79 343.92
  Q 2333.73 307.35 2333.75 270.77
  Q 2333.75 270.25 2333.23 270.25
  L 2298.00 270.25
  Q 2297.50 270.25 2297.50 269.75
  L 2297.50 201.26
  Q 2297.50 200.74 2298.01 200.75
  C 2323.88 200.88 2346.00 196.43 2352.43 167.47
  Q 2356.92 147.21 2356.39 126.35
  Q 2356.38 125.75 2356.98 125.75
  L 2418.30 125.75
  Q 2418.86 125.75 2418.86 126.30
  L 2419.06 200.03
  Q 2419.06 200.50 2419.53 200.50
  Z"
/>
<path fill="#ffa52e" d="
  M 1235.24 275.04
  Q 1235.25 275.91 1235.77 275.20
  L 1298.87 188.83
  A 0.81 0.80 17.9 0 1 1299.52 188.50
  L 1382.52 188.50
  Q 1383.29 188.50 1382.83 189.11
  L 1300.33 297.87
  A 0.72 0.71 -46.2 0 0 1300.34 298.75
  L 1396.77 419.54
  Q 1397.34 420.25 1396.43 420.25
  L 1306.46 420.25
  Q 1305.94 420.25 1305.62 419.84
  L 1235.69 329.32
  Q 1235.16 328.64 1235.17 329.50
  L 1235.50 419.84
  Q 1235.50 420.43 1234.91 420.43
  L 1162.55 420.53
  Q 1162.06 420.53 1162.06 420.05
  L 1161.69 139.77
  A 0.72 0.72 0.0 0 1 1163.04 139.43
  L 1234.97 273.07
  Q 1235.22 273.52 1235.23 274.04
  L 1235.24 275.04
  Z"
/>
<path fill="#ffa52e" d="
  M 1023.16 221.17
  C 1036.59 202.62 1052.74 191.11 1075.98 189.63
  Q 1111.90 187.36 1138.94 210.98
  Q 1139.33 211.32 1139.08 211.77
  L 1109.74 263.03
  A 0.65 0.65 0.0 0 1 1108.82 263.25
  Q 1096.10 254.88 1084.77 253.01
  C 1069.61 250.49 1052.96 253.42 1041.74 264.11
  C 1028.70 276.54 1026.05 294.82 1026.38 312.02
  C 1027.06 346.78 1026.52 381.72 1026.48 416.50
  Q 1026.48 417.00 1025.98 417.00
  L 956.03 417.00
  Q 955.56 417.00 955.56 416.53
  L 955.35 194.95
  Q 955.35 194.50 955.80 194.50
  L 1016.73 194.50
  Q 1017.21 194.50 1017.30 194.97
  L 1022.37 221.00
  Q 1022.56 221.99 1023.16 221.17
  Z"
/>
<path fill="#ffa52e" d="
  M 836.70 220.19
  L 840.96 195.27
  Q 841.04 194.83 841.48 194.83
  L 901.82 194.46
  A 0.62 0.62 0.0 0 1 902.44 195.08
  L 902.82 415.71
  Q 902.82 417.24 901.29 417.24
  L 841.74 417.26
  A 0.44 0.43 -4.7 0 1 841.31 416.90
  L 836.96 391.49
  A 0.29 0.29 0.0 0 0 836.46 391.34
  C 809.93 419.61 771.23 427.48 734.41 418.27
  C 694.22 408.22 667.25 374.69 659.48 335.00
  C 651.78 295.66 659.23 250.43 687.89 220.81
  C 711.13 196.78 743.46 187.33 776.50 190.96
  Q 811.92 194.84 836.45 220.27
  A 0.15 0.15 0.0 0 0 836.70 220.19
  Z
  M 728.19 293.62
  Q 724.89 311.05 730.39 327.34
  C 737.96 349.72 757.52 362.47 780.67 362.27
  C 806.82 362.03 827.31 344.20 831.58 318.49
  C 837.56 282.50 818.17 250.25 779.66 249.91
  C 752.47 249.67 733.12 267.54 728.19 293.62
  Z"
/>
<path fill="#ffa52e" d="
  M 454.51 396.69
  A 0.15 0.15 0.0 0 0 454.25 396.80
  L 454.25 513.50
  Q 454.25 514.00 453.75 514.00
  L 383.95 514.00
  Q 383.40 514.00 383.40 513.45
  L 382.97 195.77
  Q 382.97 195.25 383.48 195.25
  L 443.95 195.25
  Q 444.41 195.25 444.49 195.71
  L 448.80 220.46
  Q 448.91 221.09 449.34 220.62
  C 472.55 195.72 505.39 187.21 538.39 191.58
  C 583.12 197.50 615.28 229.04 625.59 272.38
  C 640.36 334.50 614.42 406.92 544.88 420.14
  Q 524.34 424.05 502.28 420.26
  Q 474.78 415.55 454.51 396.69
  Z
  M 557.62 291.88
  C 551.76 263.28 526.84 246.97 498.26 250.71
  C 463.93 255.20 448.49 288.80 454.85 320.21
  C 459.09 341.16 474.28 358.14 495.63 361.63
  C 539.53 368.81 565.96 332.58 557.62 291.88
  Z"
/>
<path fill="#000000" d="
  M 1985.95 291.71
  C 1986.13 285.46 1986.81 280.88 1981.90 277.09
  C 1971.13 268.79 1954.42 266.43 1941.25 266.40
  C 1916.69 266.33 1895.18 271.49 1872.30 279.88
  Q 1871.74 280.08 1871.62 279.50
  L 1857.20 213.93
  Q 1857.05 213.27 1857.67 213.01
  Q 1869.27 208.11 1883.76 204.49
  Q 1929.85 192.97 1977.25 196.98
  C 2013.76 200.07 2061.06 213.99 2070.54 255.62
  Q 2072.01 262.07 2072.11 275.50
  Q 2072.33 307.42 2072.28 339.34
  C 2072.25 354.03 2073.29 363.97 2087.96 368.67
  A 0.72 0.71 -69.3 0 1 2088.39 369.64
  L 2066.38 419.46
  Q 2066.17 419.93 2065.66 419.94
  C 2042.70 420.34 2013.16 417.03 1996.62 398.95
  A 0.80 0.80 0.0 0 0 1995.55 398.85
  Q 1969.84 417.52 1937.75 419.67
  C 1920.36 420.83 1904.23 420.22 1888.42 414.07
  C 1858.64 402.48 1845.46 376.28 1850.29 344.76
  C 1856.22 306.16 1891.77 287.98 1927.43 286.11
  Q 1956.94 284.57 1985.45 292.08
  Q 1985.94 292.21 1985.95 291.71
  Z
  M 1985.70 330.78
  C 1974.74 325.73 1957.47 324.08 1948.08 333.01
  C 1941.26 339.48 1942.29 350.30 1949.10 356.43
  Q 1953.76 360.63 1960.02 361.13
  Q 1974.92 362.31 1985.74 350.38
  Q 1986.00 350.09 1986.00 349.69
  L 1986.00 331.25
  Q 1986.00 330.92 1985.70 330.78
  Z"
/>
<path fill="#000000" d="
  M 1744.96 218.41
  Q 1750.06 212.46 1751.78 210.77
  C 1774.74 188.11 1815.27 193.14 1836.40 215.22
  Q 1836.74 215.58 1836.48 216.00
  L 1798.11 279.42
  Q 1797.77 279.98 1797.35 279.47
  C 1788.33 268.64 1773.52 262.57 1760.26 268.19
  C 1750.02 272.53 1744.77 283.21 1744.79 294.25
  Q 1744.89 354.48 1744.67 413.82
  Q 1744.67 415.24 1743.25 415.24
  L 1659.97 415.26
  Q 1659.43 415.26 1659.43 414.72
  L 1659.18 202.03
  Q 1659.18 201.49 1659.72 201.49
  L 1743.99 201.49
  Q 1744.50 201.49 1744.50 201.99
  L 1744.50 218.24
  Q 1744.50 218.95 1744.96 218.41
  Z"
/>
<path fill="#000000" d="
  M 1502.15 329.88
  C 1514.15 344.85 1535.59 346.27 1550.19 334.55
  C 1552.20 332.93 1554.13 330.71 1555.99 328.62
  Q 1556.34 328.22 1556.76 328.54
  L 1622.81 378.70
  A 0.41 0.41 0.0 0 1 1622.88 379.29
  Q 1600.22 407.32 1565.26 416.46
  Q 1540.74 422.87 1512.71 419.93
  C 1461.61 414.57 1417.61 381.02 1408.42 328.77
  C 1396.97 263.60 1439.17 209.39 1503.27 198.62
  C 1548.53 191.02 1593.79 202.39 1623.49 238.96
  Q 1623.80 239.35 1623.41 239.65
  L 1557.15 289.91
  A 0.59 0.59 0.0 0 1 1556.30 289.76
  C 1547.79 276.74 1531.00 271.32 1516.64 277.04
  C 1495.52 285.45 1487.43 311.51 1502.15 329.88
  Z"
/>
</svg>
